<?xml version="1.0" standalone="no"?>
<!DOCTYPE svg PUBLIC "-//W3C//DTD SVG 1.1//EN" "http://www.w3.org/Graphics/SVG/1.1/DTD/svg11.dtd" >
<svg xmlns="http://www.w3.org/2000/svg" xmlns:xlink="http://www.w3.org/1999/xlink" version="1.1">
<metadata></metadata>
<defs>
<font id="affogatoregular" horiz-adv-x="584" >
<font-face units-per-em="880" ascent="704" descent="-176" />
<missing-glyph horiz-adv-x="246" />
<glyph unicode="&#xfb01;" horiz-adv-x="500" d="M103 486q0 52 34 84.5t84 32.5q35 0 62 -11l-12 -41q-19 7 -47 7q-30 -1 -50.5 -22t-20.5 -52v-62h98v-44h-98v-378h-50v378h-58v44h58v64zM385 576q18 0 29 -11t11 -28t-11 -28t-29 -11q-17 0 -28 11t-11 28t11 28t28 11zM360 0l1 436l50 3l-1 -439h-50z" />
<glyph unicode="&#xfb02;" horiz-adv-x="530" d="M103 486q0 52 34 84.5t84 32.5q35 0 62 -11l-12 -41q-19 7 -47 7q-30 -1 -50.5 -22t-20.5 -52v-62h98v-44h-98v-378h-50v378h-58v44h58v64zM474 49h28v-49h-31q-60 0 -87.5 31t-27.5 98l1 460l50 3l-1 -453q0 -45 13.5 -67t54.5 -23z" />
<glyph unicode="fh" horiz-adv-x="788" d="M103 486q0 52 34 84.5t84 32.5q35 0 62 -11l-12 -41q-19 7 -47 7q-30 -1 -50.5 -22t-20.5 -52v-62h98v-44h-98v-378h-50v378h-58v44h58v64zM535 445q73 10 120.5 -35t47.5 -120v-290h-50v278q0 62 -36.5 95.5t-93.5 24.5q-32 -5 -63 -30t-50 -57v-311h-50v592l50 3v-230 q52 70 125 80z" />
<glyph unicode="fj" horiz-adv-x="508" d="M251 378h-98v-378h-50v378h-58v44h58v64q0 52 34 84.5t84 32.5q35 0 62 -11l-12 -41q-19 7 -47 7q-30 -1 -50.5 -22t-20.5 -52v-62h98v-44zM394 587q18 0 29 -11t11 -28t-11 -28t-29 -11q-17 0 -28 11t-11 28t11 28t28 11zM369 -55v490l50 3v-492q0 -77 -31.5 -114.5 t-84.5 -37.5q-36 0 -66 15l13 43q20 -8 46 -8q73 2 73 101z" />
<glyph unicode="ft" horiz-adv-x="561" d="M103 486q0 52 34 84.5t84 32.5q35 0 62 -11l-12 -41q-19 7 -47 7q-30 -1 -50.5 -22t-20.5 -52v-62h98v-44h-98v-378h-50v378h-58v44h58v64zM489 49h28v-49h-31q-60 0 -87.5 31t-27.5 98l1 248h-56v48h56v135l50 3v-138h85v-48h-85l-1 -238q0 -45 13.5 -67t54.5 -23z" />
<glyph unicode="qj" horiz-adv-x="705" d="M590 587q18 0 29 -11t11 -28t-11 -28t-29 -11q-17 0 -28 11t-11 28t11 28t28 11zM345 409l2 35l48 -4v-637l-50 3v264q-60 -62 -112 -70q-82 -13 -134 49.5t-52 172.5q0 106 56 174.5t144 47.5q43 -10 98 -74v39zM565 -55v490l50 3v-492q0 -77 -31.5 -114.5t-84.5 -37.5 q-36 0 -66 15l13 43q20 -8 46 -8q73 2 73 101zM232 45q49 6 113 70v209q-57 66 -100 75q-64 13 -105 -39.5t-41 -137.5q0 -87 36.5 -134.5t96.5 -42.5z" />
<glyph unicode="&#x3a;&#x28;" horiz-adv-x="548" d="M433 -88q-112 169 -112 384q0 218 116 390l41 -27q-108 -158 -108 -363q0 -197 105 -357zM113 412q-16 0 -27 11t-11 27t10.5 26.5t27.5 10.5t27 -10.5t10 -26.5t-10.5 -27t-26.5 -11zM114 64q-16 0 -27 11t-11 27t10.5 26.5t27.5 10.5q16 0 26.5 -10.5t10.5 -26.5 t-10.5 -27t-26.5 -11z" />
<glyph unicode="&#x3a;&#x29;" horiz-adv-x="529" d="M348 -88l-42 27q104 161 104 357q0 207 -108 363l42 27q115 -171 115 -390q0 -217 -111 -384zM113 410q-16 0 -27 11t-11 27t10.5 26.5t27.5 10.5t27 -10.5t10 -26.5t-10.5 -27t-26.5 -11zM114 62q-16 0 -27 11t-11 27t10.5 26.5t27.5 10.5q16 0 26.5 -10.5t10.5 -26.5 t-10.5 -27t-26.5 -11z" />
<glyph unicode="&#x21;&#x3f;" horiz-adv-x="359" d="M165 619q77 0 122.5 -45.5t45.5 -115.5q0 -34 -14.5 -65.5t-29 -47.5t-40.5 -40q-44 -40 -55 -60q-10 -20 -12 -41q-2 -20 -2 -53l-50 3v27l-7 293l54 5l-3 -179q1 1 43 40q66 62 66 116q0 51 -32 83t-84 32q-48 0 -79.5 -30.5t-36.5 -78.5l-49 12q10 65 54.5 105 t108.5 40zM161 72q17 0 27 -10t10 -27q0 -16 -10.5 -27t-26.5 -11t-27 11t-11 27t10.5 26.5t27.5 10.5z" />
<glyph unicode="&#x3b;&#x29;" horiz-adv-x="521" d="M340 -88l-42 27q104 161 104 357q0 207 -108 363l42 27q115 -171 115 -390q0 -217 -111 -384zM112 402q-16 0 -27 11t-11 27t10.5 26.5t27.5 10.5q16 0 26.5 -10.5t10.5 -26.5t-10.5 -27t-26.5 -11zM90 1l-48 6l43 219l40 -4z" />
<glyph horiz-adv-x="0" />
<glyph horiz-adv-x="293" />
<glyph unicode=" "  horiz-adv-x="246" />
<glyph unicode="&#x09;" horiz-adv-x="246" />
<glyph unicode="&#xa0;" horiz-adv-x="246" />
<glyph unicode="!" horiz-adv-x="193" d="M82 160l-11 452h56l-7 -452h-38zM104 -3q-16 0 -27 11t-11 27t10.5 26.5t27.5 10.5q16 0 26.5 -10t10.5 -27q0 -16 -10.5 -27t-26.5 -11z" />
<glyph unicode="&#x22;" horiz-adv-x="293" d="M8 409l-5 230l51 3l-6 -233h-40zM193 409l-5 230l51 3l-6 -233h-40z" />
<glyph unicode="#" horiz-adv-x="589" d="M571 381h-111l-44 -198h116l-10 -46h-116l-30 -137h-48l30 137h-194l-30 -137h-48l30 137h-110l10 46h110l44 198h-111l10 45h111l30 135h48l-30 -135h193l30 135h48l-30 -135h112zM368 183l44 198h-194l-44 -198h194z" />
<glyph unicode="$" horiz-adv-x="455" d="M265 305q33 -14 53.5 -25t43.5 -29.5t34.5 -44.5t11.5 -60q0 -58 -37 -100t-106 -50v-73h-50v73q-63 8 -102.5 49.5t-44.5 91.5l47 13q4 -37 31 -66.5t69 -35.5v225q-33 14 -52.5 24.5t-42 28.5t-33.5 42.5t-11 55.5q0 53 39.5 92t99.5 47v71h50v-70q57 -7 96.5 -44.5 t46.5 -88.5l-46 -13q-6 40 -33 65t-64 31v-209zM130 423q1 -34 23 -56t62 -41v187q-39 -7 -62.5 -33.5t-22.5 -56.5zM265 48q44 7 67.5 34t23.5 66q0 37 -23.5 60.5t-67.5 43.5v-204z" />
<glyph unicode="%" horiz-adv-x="603" d="M92 0l371 560h41l-370 -560h-42zM141 330q-42 0 -71 29.5t-29 70.5t29 70t71 29q41 0 70 -29t29 -70t-29 -70.5t-70 -29.5zM140 369q26 0 43.5 17.5t17.5 43.5q0 24 -18 42t-43 18t-42.5 -18t-17.5 -42q0 -25 17.5 -43t42.5 -18zM463 30q-42 0 -71 29.5t-29 70.5t29 70 t71 29q41 0 70 -29t29 -70t-29 -70.5t-70 -29.5zM462 69q26 0 43.5 17.5t17.5 43.5q0 24 -18 42t-43 18t-42.5 -18t-17.5 -42q0 -25 17.5 -43t42.5 -18z" />
<glyph unicode="&#x26;" horiz-adv-x="558" d="M503 248q-24 -89 -73 -155l49 -93h-54l-29 54q-62 -59 -140 -59q-88 0 -144 53t-56 133q0 76 46.5 128t126.5 61l-100 189h298v-48h-218l198 -374q36 57 53 125zM255 40q66 0 119 56l-122 231q-73 -4 -112 -45.5t-39 -99.5q1 -60 43 -101t111 -41z" />
<glyph unicode="'" horiz-adv-x="93" d="M18 409l-5 230l51 3l-6 -233h-40z" />
<glyph unicode="(" horiz-adv-x="260" d="M181 -88q-112 169 -112 384q0 218 116 390l41 -27q-108 -158 -108 -363q0 -197 105 -357z" />
<glyph unicode=")" horiz-adv-x="260" d="M79 -88l-42 27q104 161 104 357q0 207 -108 363l42 27q115 -171 115 -390q0 -217 -111 -384z" />
<glyph unicode="*" horiz-adv-x="410" d="M350 495l-124 -60l123 -58l-21 -37l-111 76l7 -136h-39l8 136l-111 -76l-22 37l124 58l-124 60l21 36l112 -77l-8 137h39l-7 -137l111 77z" />
<glyph unicode="+" horiz-adv-x="519" d="M443 278v-47h-159v-170h-50v170h-159v47h159v169h50v-169h159z" />
<glyph unicode="," horiz-adv-x="167" d="M90 -127l-48 6l43 219l40 -4z" />
<glyph unicode="-" horiz-adv-x="379" d="M85 230l10 47h199l-10 -47h-199z" />
<glyph unicode="." horiz-adv-x="189" d="M95 -2q-16 0 -27 11t-11 27t10.5 26.5t27.5 10.5t27 -10.5t10 -26.5t-10.5 -27t-26.5 -11z" />
<glyph unicode="/" horiz-adv-x="298" d="M48 0l192 659h48l-192 -659h-48z" />
<glyph unicode="0" horiz-adv-x="523" d="M261 -3q-88 0 -147 70t-59 201v24q0 131 59 201t147 70t147 -70t59 -201v-24q0 -131 -58.5 -201t-147.5 -70zM261 44q68 0 112.5 56t44.5 168v24q0 112 -44 167.5t-112 55.5t-112.5 -55.5t-44.5 -167.5v-24q0 -112 44.5 -168t111.5 -56z" />
<glyph unicode="1" horiz-adv-x="272" d="M35 554l136 8v-562h-50v510l-86 -4v48z" />
<glyph unicode="2" horiz-adv-x="432" d="M120 48h267v-48h-332v43l207 253q58 74 57 131q0 40 -29.5 67t-68.5 27q-85 0 -110 -91l-46 12q16 58 56 92t100 34q61 0 104.5 -41t44.5 -102q1 -41 -16 -75t-54 -80z" />
<glyph unicode="3" horiz-adv-x="455" d="M221 340q80 6 130 -45t50 -122q0 -74 -51.5 -126t-126.5 -52q-65 0 -112.5 41.5t-57.5 92.5l46 15q7 -39 41 -70.5t82 -31.5q55 0 92.5 38.5t37.5 92.5q0 53 -35.5 91t-85.5 40q-23 1 -58 -10l-19 36l174 185h-264v45h322v-47z" />
<glyph unicode="4" horiz-adv-x="439" d="M392 192v-49h-47v-143h-50v143h-258l105 417h49l-91 -368h195l1 225l49 -3v-222h47z" />
<glyph unicode="5" horiz-adv-x="463" d="M240 347q72 -1 120.5 -51.5t48.5 -122.5q0 -73 -52 -125.5t-126 -52.5q-66 0 -114 41.5t-58 92.5l44 14q10 -40 44 -70.5t83 -30.5q55 0 92.5 38.5t37.5 92.5q0 55 -37.5 94t-92.5 39q-61 0 -99 -41l-45 27l17 267h276v-47h-229l-12 -196q47 31 102 31z" />
<glyph unicode="6" horiz-adv-x="482" d="M245 367q85 0 134 -54t49 -130q0 -79 -51.5 -133t-135.5 -54q-86 0 -138.5 58t-47.5 142v1q0 11 1 17q5 43 33 96.5t80 133.5t73 116h52q-23 -37 -66.5 -108.5t-59.5 -99.5q34 15 77 15zM241 41q62 0 100 40.5t38 100.5q0 59 -38 99.5t-100 40.5q-43 0 -78.5 -22.5 t-50.5 -58.5q-10 -30 -10 -59q0 -59 38.5 -100t100.5 -41z" />
<glyph unicode="7" horiz-adv-x="366" d="M37 560h314l-199 -560h-53l184 512h-246v48z" />
<glyph unicode="8" horiz-adv-x="487" d="M326 317q51 -20 78.5 -61.5t27.5 -89.5q0 -70 -49 -120.5t-139 -50.5q-87 0 -138 50t-51 121q0 49 28 90t79 61q-69 37 -69 112q0 58 42 97t109 39q66 0 108 -39t42 -97q0 -35 -18 -65t-50 -47zM244 524q-47 0 -76.5 -27t-29.5 -68t30 -68t76 -27q47 0 76 27t29 68 t-29.5 68t-75.5 27zM244 37q71 0 106 39t35 92q0 49 -35.5 87.5t-105.5 38.5t-105.5 -38.5t-35.5 -87.5q0 -54 37 -92.5t104 -38.5z" />
<glyph unicode="9" horiz-adv-x="493" d="M433 363q0 -11 -1 -17q-5 -43 -33 -96.5t-80 -133.5t-73 -116h-52q23 37 66.5 108.5t59.5 99.5q-34 -15 -77 -15q-85 0 -134 54t-49 130q0 79 51.5 133t135.5 54q86 0 138.5 -58t47.5 -142v-1zM247 238q43 0 78.5 22.5t50.5 58.5q10 30 10 59q0 59 -38.5 100t-100.5 41 t-100 -40.5t-38 -100.5q0 -59 38 -99.5t100 -40.5z" />
<glyph unicode=":" horiz-adv-x="220" d="M113 347q-16 0 -27 11t-11 27t10.5 26.5t27.5 10.5t27 -10t10 -27q0 -16 -10.5 -27t-26.5 -11zM114 -1q-16 0 -27 11t-11 27t10.5 26.5t27.5 10.5q16 0 26.5 -10t10.5 -27q0 -16 -10.5 -27t-26.5 -11z" />
<glyph unicode=";" horiz-adv-x="185" d="M112 288q-16 0 -27 11t-11 27t10.5 26.5t27.5 10.5q16 0 26.5 -10.5t10.5 -26.5t-10.5 -27t-26.5 -11zM90 -113l-48 6l43 219l40 -4z" />
<glyph unicode="&#x3c;" horiz-adv-x="410" d="M312 1l-253 282l256 283l34 -31l-229 -252l227 -251z" />
<glyph unicode="=" horiz-adv-x="512" d="M76 327v46h357v-46h-357zM75 134v46h357v-46h-357z" />
<glyph unicode="&#x3e;" horiz-adv-x="410" d="M97 1l-34 31l227 251l-230 252l35 31l255 -283z" />
<glyph unicode="?" horiz-adv-x="355" d="M180 151l-50 3q0 33 2 52q1 14 4 27t9 24.5t10.5 19.5t14.5 18.5t14.5 15t17 15.5t15.5 14q66 62 66 116q0 51 -32 83t-84 32q-48 0 -79.5 -30.5t-36.5 -78.5l-49 12q10 65 54.5 105t108.5 40q77 0 122.5 -45.5t45.5 -115.5q0 -34 -14.5 -65.5t-29 -47.5t-40.5 -40 q-44 -40 -55 -60q-10 -20 -12 -41q-2 -20 -2 -53zM161 -3q-16 0 -27 11t-11 27t10.5 26.5t27.5 10.5t27 -10t10 -27q0 -16 -10.5 -27t-26.5 -11z" />
<glyph unicode="@" horiz-adv-x="854" d="M810 237v-5q-1 -44 -8.5 -83.5t-25 -79t-52 -63t-83.5 -23.5q-91 0 -112 88q-63 -63 -113 -71q-82 -13 -134 49.5t-52 172.5q0 106 56 174.5t144 47.5q44 -9 93 -68v67l48 -4v-328q1 -38 18.5 -62t48.5 -24q40 0 67 22.5t39 59.5t17 67t5 62q-2 144 -99.5 241t-247.5 97 q-135 0 -234 -101t-99 -250q0 -153 100 -250.5t237 -97.5q111 0 209 64l14 -42q-106 -67 -223 -66q-100 0 -186.5 48.5t-140 140t-53.5 204.5q0 166 112 279t265 113q166 0 276 -107t114 -267v-5zM415 45q48 5 108 65v220q-52 60 -95 69q-64 13 -105 -39.5t-41 -137.5 q0 -87 36.5 -134.5t96.5 -42.5z" />
<glyph unicode="A" horiz-adv-x="497" d="M407 0l-38 123h-242l-38 -123h-50l177 557l65 4l176 -561h-50zM142 169h213l-107 341z" />
<glyph unicode="B" horiz-adv-x="523" d="M92 0v559q112 6 175 6q72 0 113.5 -38.5t41.5 -103.5q0 -81 -58 -123q41 -13 68 -51t27 -91q0 -73 -48.5 -115.5t-117.5 -42.5h-201zM143 312h127q49 0 75 30.5t26 76.5q0 44 -31.5 71t-77.5 27q-56 0 -119 -3v-202zM143 49h142q53 0 87 31t34 82q0 46 -28 75.5t-79 29.5 h-156v-218z" />
<glyph unicode="C" horiz-adv-x="544" d="M290 -5q-91 0 -159 72.5t-68 203.5v18q0 131 68 203.5t159 72.5q63 0 112.5 -32.5t77.5 -88.5l-43 -21q-50 93 -147 93q-71 0 -124 -58t-53 -169v-18q0 -111 53 -168.5t123 -57.5q101 0 147 94l44 -21q-27 -58 -76.5 -90.5t-113.5 -32.5z" />
<glyph unicode="D" horiz-adv-x="546" d="M92 0v559q54 4 151 6q44 0 84.5 -15t76 -47t57 -90t21.5 -135q0 -71 -19 -124t-45.5 -81.5t-63 -46t-64.5 -22t-57 -4.5h-141zM143 50h90q90 0 144 55.5t54 171.5t-55 176.5t-135 60.5q-65 0 -98 -2v-462z" />
<glyph unicode="E" horiz-adv-x="460" d="M410 513h-269v-224h201v-47h-201v-195h269v-47h-318v560h318v-47z" />
<glyph unicode="F" horiz-adv-x="412" d="M410 513h-268v-229h187v-47h-187v-237h-50v560h318v-47z" />
<glyph unicode="G" horiz-adv-x="575" d="M296 -5q-99 0 -166 72.5t-67 207.5v10q0 135 67 207.5t166 72.5q70 0 125.5 -42.5t73.5 -107.5l-47 -13q-14 51 -55.5 83.5t-96.5 32.5q-78 0 -130.5 -58t-52.5 -175v-10q0 -116 52.5 -174t129.5 -58q70 0 117 50.5t47 137.5v8h-172v45h224v-45q0 -111 -63 -177.5 t-152 -66.5z" />
<glyph unicode="H" horiz-adv-x="536" d="M393 560h50v-560h-50v235h-251v-235h-50v558l50 3v-277h251v276z" />
<glyph unicode="I" horiz-adv-x="267" d="M158 563v-563h-50v560z" />
<glyph unicode="J" horiz-adv-x="362" d="M75 559l199 3v-380q0 -90 -39 -138.5t-111 -48.5q-52 0 -90 24l19 38q26 -13 66 -13q104 0 104 145l1 324h-149v46z" />
<glyph unicode="K" horiz-adv-x="514" d="M436 0l-171 328l-123 -153v-175h-50v559l50 4v-311l253 308h58l-155 -192l195 -368h-57z" />
<glyph unicode="L" horiz-adv-x="382" d="M142 47h207v-47h-257v558l50 3v-514z" />
<glyph unicode="M" horiz-adv-x="701" d="M558 561l50 -4v-557h-50v459l-192 -352h-31l-193 356v-463h-50v557l52 4l207 -382z" />
<glyph unicode="N" d="M442 558h50v-558h-47l-303 475v-475h-50v557l51 3l299 -472v470z" />
<glyph unicode="O" d="M292 -5q-94 0 -161 72t-67 204v18q0 132 67 204t161 72q93 0 160.5 -72.5t67.5 -203.5v-18q0 -131 -67.5 -203.5t-160.5 -72.5zM291 43q73 0 126 57.5t53 170.5v18q0 113 -52.5 171t-125.5 58t-125.5 -58t-52.5 -171v-18q0 -112 52.5 -170t124.5 -58z" />
<glyph unicode="P" horiz-adv-x="467" d="M243 564q33 0 63 -9t58 -29.5t45 -60.5t17 -95q0 -84 -52.5 -133.5t-119.5 -50.5h-111v-186h-51v559q59 3 151 5zM143 233h103q53 0 91.5 37.5t38.5 101.5q0 73 -37 108t-99 35q-44 0 -97 -3v-279z" />
<glyph unicode="Q" horiz-adv-x="587" d="M521 47l11 -47h-242q-94 0 -163 72.5t-69 203.5v13q0 131 69 203.5t163 72.5q93 0 163 -73t70 -203v-13q0 -155 -107 -229h105zM108 276q0 -110 54.5 -168t127.5 -58t128 58t55 168v13q0 110 -54.5 168.5t-128.5 58.5q-73 0 -127.5 -58.5t-54.5 -168.5v-13z" />
<glyph unicode="R" horiz-adv-x="489" d="M426 374q0 -65 -29 -109t-76 -63l105 -202h-58l-98 189q-5 -1 -16 -1h-111v-188h-51v559q59 3 151 5q32 0 62 -9t58.5 -29.5t45.5 -59.5t17 -92zM246 235q54 0 92 36.5t38 104.5q0 71 -37 105t-99 34l-97 -3v-277h103z" />
<glyph unicode="S" horiz-adv-x="468" d="M235 -5q-73 0 -119.5 43.5t-51.5 98.5l47 13q5 -43 38 -73.5t85 -30.5q56 0 87 28.5t31 73.5q0 39 -29 65.5t-70 43t-82 34.5t-70 51t-29 82q0 60 48 100.5t117 40.5q66 0 112.5 -38.5t54.5 -95.5l-46 -13q-6 45 -40.5 71.5t-78.5 26.5q-52 0 -83 -29t-30 -64 q1 -37 29.5 -62.5t69.5 -41.5t81.5 -34.5t69 -53t28.5 -85.5q0 -63 -43.5 -107t-125.5 -44z" />
<glyph unicode="T" horiz-adv-x="366" d="M352 560v-48h-144v-512h-50v512h-144v48h338z" />
<glyph unicode="U" horiz-adv-x="568" d="M284 -5q-87 0 -143 59.5t-55 157.5l3 346l48 3l-2 -347q0 -76 42 -122t107 -46q67 0 107.5 45.5t40.5 122.5v346h49l1 -348q0 -98 -55 -157.5t-143 -59.5z" />
<glyph unicode="V" horiz-adv-x="460" d="M392 562l51 -3l-188 -559h-50l-188 559l51 4l162 -482z" />
<glyph unicode="W" horiz-adv-x="682" d="M609 562l50 -3l-135 -559h-46l-137 448l-137 -448h-46l-135 559l50 3l113 -469l135 449h40l135 -450z" />
<glyph unicode="X" horiz-adv-x="506" d="M483 0h-57l-173 247l-173 -247h-57l199 286l-189 273l56 2l164 -237l166 241l56 -2l-192 -278z" />
<glyph unicode="Y" horiz-adv-x="422" d="M405 559l-169 -321v-238h-50v238l-170 321l51 3l143 -273h2l142 273z" />
<glyph unicode="Z" horiz-adv-x="414" d="M88 46h291v-46h-345v51l292 462h-291v45h343v-53z" />
<glyph unicode="[" horiz-adv-x="299" d="M115 -115v797h112v-50l-62 -2v-692l62 -3v-50h-112z" />
<glyph unicode="\" horiz-adv-x="298" d="M202 0l-192 659h48l192 -659h-48z" />
<glyph unicode="]" horiz-adv-x="299" d="M71 -114v50l62 3v692l-62 2v50h112v-797h-112z" />
<glyph unicode="^" horiz-adv-x="438" d="M377 458l-33 -34l-125 126l-125 -121l-33 34l158 150z" />
<glyph unicode="_" horiz-adv-x="666" d="M101 -60l6 47h457l-5 -47h-458z" />
<glyph unicode="a" horiz-adv-x="486" d="M393 137q0 -45 13.5 -66.5t54.5 -21.5v-47q-92 -7 -113 70q-60 -64 -113 -72q-82 -13 -134 49.5t-52 172.5q0 106 56 174.5t144 47.5q43 -10 95 -70v35l1 35l49 -3zM234 45q49 6 109 66v14l1 203q-54 62 -97 71q-64 13 -105 -39.5t-41 -137.5q0 -87 36.5 -134.5 t96.5 -42.5z" />
<glyph unicode="b" horiz-adv-x="479" d="M254 445q79 9 128 -57t49 -166q0 -108 -52.5 -168.5t-128.5 -52.5q-55 5 -111 63v-25l-2 -39h-48v597l50 2v-225q55 62 115 71zM246 46q60 -5 96.5 42t36.5 134q0 81 -36.5 133t-96.5 44q-46 -5 -107 -74v-215q62 -60 107 -64z" />
<glyph unicode="c" horiz-adv-x="452" d="M241 -5q-81 0 -136.5 62t-55.5 155v16q0 93 55.5 155t136.5 62q57 0 100 -32.5t61 -75.5l-41 -23q-11 31 -43.5 57.5t-76.5 26.5q-60 0 -101.5 -48t-41.5 -122v-16q0 -74 41.5 -121.5t100.5 -47.5q45 0 77.5 26t44.5 57l40 -24q-19 -43 -62 -75t-99 -32z" />
<glyph unicode="d" horiz-adv-x="483" d="M344 597l50 -3v-594h-47l-3 52v15q-57 -59 -109 -67q-82 -13 -134 49.5t-52 172.5q0 106 56 174.5t144 47.5q43 -10 95 -70v223zM234 45q49 6 110 67v216q-54 62 -97 71q-64 13 -105 -39.5t-41 -137.5q0 -87 36.5 -134.5t96.5 -42.5z" />
<glyph unicode="e" horiz-adv-x="484" d="M244 -5q-85 0 -137.5 63.5t-52.5 161.5q0 97 54 161t136 64q78 0 132.5 -57.5t54.5 -146.5q0 -23 -1 -33l-328 1v-8q2 -71 40.5 -116t100.5 -45q87 0 130 84l45 -14q-24 -53 -70 -84t-104 -31zM103 253h279q0 65 -40.5 106.5t-97.5 41.5q-58 0 -99 -44.5t-42 -103.5z" />
<glyph unicode="f" horiz-adv-x="271" d="M224 558q-30 -1 -50.5 -22t-20.5 -52v-62h98v-44h-98v-378h-50v378h-58v44h58v64q0 52 34 84.5t84 32.5q35 0 62 -11l-12 -41q-19 7 -47 7z" />
<glyph unicode="g" horiz-adv-x="498" d="M462 432l-3 -47l-97 7q68 -66 68 -164q0 -80 -45 -139q41 -50 41 -112q-1 -80 -54 -131.5t-138 -51.5q-59 0 -104.5 26t-68.5 60l37 25q19 -24 54.5 -44t81.5 -20q62 0 101.5 39.5t39.5 96.5q0 44 -23 78q-51 -40 -113 -40q-80 0 -136 62t-56 153q0 90 56 152.5t136 62.5 h1q11 0 16 -1zM383 230q0 73 -42 121.5t-102 48.5t-101.5 -48.5t-41.5 -121.5q0 -72 41.5 -120.5t100.5 -48.5q61 0 103 48.5t42 120.5z" />
<glyph unicode="h" horiz-adv-x="517" d="M264 445q73 10 120.5 -35t47.5 -120v-290h-50v278q0 62 -36.5 95.5t-93.5 24.5q-32 -5 -63 -30t-50 -57v-311h-50v592l50 3v-230q52 70 125 80z" />
<glyph unicode="i" horiz-adv-x="229" d="M114 498q-17 0 -28 11t-11 28t11 28t28 11q18 0 29 -11t11 -28t-11 -28t-29 -11zM89 0l1 436l50 3l-1 -439h-50z" />
<glyph unicode="j" horiz-adv-x="237" d="M123 509q-17 0 -28 11t-11 28t11 28t28 11q18 0 29 -11t11 -28t-11 -28t-29 -11zM32 -206q-36 0 -66 15l13 43q20 -8 46 -8q73 2 73 101v490l50 3v-492q0 -77 -31.5 -114.5t-84.5 -37.5z" />
<glyph unicode="k" horiz-adv-x="452" d="M373 0l-134 250l-100 -116v-134h-50v562l50 5v-363l205 236h58l-131 -152l154 -288h-52z" />
<glyph unicode="l" horiz-adv-x="259" d="M200 0q-60 0 -87.5 31t-27.5 98l1 460l50 3l-1 -453q0 -45 13.5 -67t54.5 -23h28v-49h-31z" />
<glyph unicode="m" horiz-adv-x="767" d="M518 445q73 10 120.5 -35t47.5 -120v-290h-50v278q0 62 -36.5 95.5t-93.5 24.5q-52 -9 -97 -64q4 -16 4 -39v-295h-50v283q0 63 -34 94.5t-88 20.5q-54 -10 -103 -72l1 -326h-50v439l47 4l2 -67q55 62 114 69q50 6 88 -14t57 -60q52 64 121 74z" />
<glyph unicode="n" horiz-adv-x="516" d="M263 445q73 10 120.5 -35t47.5 -120v-290h-50v278q0 62 -36.5 95.5t-93.5 24.5q-31 -5 -61.5 -29t-50.5 -56v-313h-50v440l49 3l1 -77q51 69 124 79z" />
<glyph unicode="o" horiz-adv-x="492" d="M246 -5q-84 0 -140.5 62t-56.5 155v16q0 93 56.5 155t140.5 62q83 0 140 -62t57 -155v-16q0 -93 -57 -155t-140 -62zM245 41q63 0 105.5 48t42.5 123v16q0 76 -42 124t-105 48t-105 -48t-42 -124v-16q0 -75 42 -123t104 -48z" />
<glyph unicode="p" horiz-adv-x="479" d="M254 445q79 9 128 -57t49 -166q0 -108 -52.5 -168.5t-128.5 -52.5q-55 5 -110 62v-260l-51 3v634l49 3l2 -68q56 61 114 70zM246 46q60 -5 96.5 42t36.5 134q0 81 -36.5 133t-96.5 44q-46 -5 -106 -73v-217q63 -59 106 -63z" />
<glyph unicode="q" horiz-adv-x="486" d="M349 444l48 -4v-637l-50 3v264q-60 -62 -112 -70q-82 -13 -134 49.5t-52 172.5q0 106 56 174.5t144 47.5q43 -10 98 -74v39zM234 45q49 6 113 70v209q-57 66 -100 75q-64 13 -105 -39.5t-41 -137.5q0 -87 36.5 -134.5t96.5 -42.5z" />
<glyph unicode="r" horiz-adv-x="300" d="M138 358q23 48 61 69.5t83 15.5l-1 -51q-58 6 -98 -31t-45 -106l-1 -255h-50v442l48 2l3 -74v-12z" />
<glyph unicode="s" horiz-adv-x="409" d="M204 -5q-64 0 -103.5 35.5t-47.5 73.5l46 14q29 -78 105 -78q50 0 76 24t24 54q-1 29 -27 48.5t-61.5 31.5t-71.5 25.5t-60.5 39t-24.5 63.5q0 51 42 85t103 34q59 0 99 -31.5t52 -74.5l-46 -14q-6 29 -34.5 52.5t-69.5 23.5q-48 0 -72.5 -25.5t-23.5 -50.5q1 -27 27 -45 t62 -29.5t71.5 -25t60.5 -41t25 -68.5q0 -49 -41 -85t-110 -36z" />
<glyph unicode="t" horiz-adv-x="294" d="M222 49h28v-49h-31q-60 0 -87.5 31t-27.5 98l1 248h-56v48h56v135l50 3v-138h85v-48h-85l-1 -238q0 -45 13.5 -67t54.5 -23z" />
<glyph unicode="u" horiz-adv-x="512" d="M372 440h50v-440h-49l-2 68q-55 -58 -125 -68q-72 -9 -119 35.5t-47 119.5v283l50 3v-273q0 -65 36 -97.5t92 -22.5q66 12 113 80z" />
<glyph unicode="v" horiz-adv-x="433" d="M353 442l49 -3l-157 -439h-57l-157 439l49 3l137 -389z" />
<glyph unicode="w" horiz-adv-x="631" d="M551 442l48 -2l-126 -440h-53l-104 364l-105 -364h-53l-126 440l48 2l108 -382l107 372h42l107 -372z" />
<glyph unicode="x" horiz-adv-x="454" d="M417 438l-160 -220l157 -218h-55l-132 184l-133 -184h-55l158 219l-159 219l53 4l136 -189l136 188z" />
<glyph unicode="y" horiz-adv-x="510" d="M371 440h50v-466q0 -82 -50.5 -131t-133.5 -49q-44 0 -83.5 18.5t-57.5 40.5l26 36q15 -18 47.5 -33t67.5 -15q58 0 96 36t38 99v92q-57 -58 -125 -68q-72 -9 -119 35.5t-47 119.5v283l50 3v-273q0 -65 36 -97.5t92 -22.5q66 12 113 80v312z" />
<glyph unicode="z" horiz-adv-x="400" d="M343 440v-47l-231 -346h231v-47h-287v47l230 346h-230v47h287z" />
<glyph unicode="{" horiz-adv-x="299" d="M219 -111q-80 0 -80 74v199q0 33 -18 57.5t-54 32.5v62q39 8 55.5 28.5t16.5 61.5v191q0 37 22.5 56.5t57.5 19.5q20 0 37 -4l-3 -46q-10 1 -25 1q-38 -3 -38 -45v-195q0 -80 -71 -98v-5q31 -9 50.5 -34.5t19.5 -62.5v-200q0 -42 39 -45q17 0 25 1l3 -45q-15 -4 -37 -4z " />
<glyph unicode="|" horiz-adv-x="261" d="M105 -116v804l50 3v-807h-50z" />
<glyph unicode="}" horiz-adv-x="299" d="M80 -112q-15 0 -37 4l3 45q12 -1 25 0q39 1 39 44v200q0 37 19.5 62.5t50.5 34.5v5q-70 18 -70 98v195q0 42 -39 45h-25l-3 46q20 3 37 3q35 0 57.5 -19.5t22.5 -56.5v-191q0 -41 16.5 -61.5t55.5 -28.5v-62q-35 -8 -53.5 -32.5t-18.5 -57.5v-199q0 -74 -80 -74z" />
<glyph unicode="~" horiz-adv-x="453" d="M83 220q-20 12 -44 28q53 76 102 76q34 1 85.5 -28.5t74.5 -28.5q42 2 68 57q8 -4 22.5 -12.5t21.5 -12.5q-38 -82 -102 -83q-30 -1 -83.5 28t-76.5 29q-18 0 -32.5 -12t-35.5 -41z" />
<glyph unicode="&#xa1;" horiz-adv-x="197" d="M101 419q-16 0 -27 11t-11 27t10.5 26.5t27.5 10.5t27 -10t10 -27q0 -16 -10.5 -27t-26.5 -11zM128 -130h-56l11 451h35z" />
<glyph unicode="&#xa2;" horiz-adv-x="441" d="M226 101q45 0 77.5 26t44.5 57l40 -24q-16 -37 -51.5 -67t-82.5 -38l3 -66l-53 1l4 64q-74 8 -123.5 68.5t-49.5 147.5v16q0 88 49.5 148t124.5 68l-5 66l53 1l-3 -68q47 -8 82.5 -38.5t51.5 -67.5l-41 -23q-11 31 -43.5 57.5t-76.5 26.5q-60 0 -101.5 -48t-41.5 -122 v-16q0 -74 41.5 -121.5t100.5 -47.5z" />
<glyph unicode="&#xa3;" horiz-adv-x="452" d="M389 65l19 -39q-42 -29 -88 -29q-39 0 -84 20t-71 20q-39 1 -94 -35l-28 39q45 37 72.5 85.5t26.5 92.5q0 27 -10 54h-81v42h60q-13 24 -18.5 34.5t-12.5 34t-7 46.5q0 70 49 116t118 46q57 0 101.5 -34t59.5 -87l-41 -16q-10 40 -43.5 66.5t-76.5 26.5q-51 0 -86.5 -34 t-35.5 -85q0 -13 2 -25t7.5 -25t9.5 -20.5t12.5 -22.5t11.5 -21h142v-42h-124q8 -24 8 -49q1 -43 -20 -86.5t-47 -66.5v-2q53 16 74.5 9t58 -22.5t68.5 -14.5q39 2 68 24z" />
<glyph unicode="&#xa5;" horiz-adv-x="406" d="M405 559l-153 -291h100v-35h-116v-81h116v-33h-116v-119h-50v119h-132v33h132v81h-132v35h116l-154 291l51 3l143 -273h2l142 273z" />
<glyph unicode="&#xa9;" horiz-adv-x="966" d="M483 -103q-160 0 -273 113t-113 272q0 160 113 273t273 113q159 0 272 -113t113 -273q0 -159 -113.5 -272t-271.5 -113zM483 -55q139 0 238 98.5t99 238.5t-98.5 239t-238.5 99t-239 -99t-99 -239q0 -139 99 -238t239 -99zM481 83q-79 0 -134 58t-55 140t55 140t134 58 t136 -59l-32 -33q-43 45 -104 45q-60 0 -102.5 -44t-42.5 -107t43 -107.5t102 -44.5q56 0 101 43l32 -33q-56 -56 -133 -56z" />
<glyph unicode="&#xad;" horiz-adv-x="379" d="M85 230l10 47h199l-10 -47h-199z" />
<glyph unicode="&#xae;" horiz-adv-x="426" d="M215 297q-80 0 -136 56t-56 135q0 77 56.5 133t135.5 56q77 0 132.5 -56t55.5 -133q0 -79 -55.5 -135t-132.5 -56zM214 328q65 0 111.5 47t46.5 113q0 65 -47 112t-111 47q-66 0 -113 -47t-47 -112q0 -67 46.5 -113.5t113.5 -46.5zM167 408v158l38 2q28 2 44 -14t16 -42 q0 -36 -27 -51l32 -53h-32l-29 47h-16v-47h-26zM193 480h22q23 2 23 31q0 26 -14 30q-13 5 -31 1v-62z" />
<glyph unicode="&#xb0;" horiz-adv-x="343" d="M172 402q-42 0 -71 29.5t-29 70.5t29 70t71 29q41 0 70 -29t29 -70t-29 -70.5t-70 -29.5zM171 441q25 0 43 17.5t18 43.5q0 24 -18 42t-43 18t-42.5 -18t-17.5 -42q0 -25 17.5 -43t42.5 -18z" />
<glyph unicode="&#xb7;" horiz-adv-x="129" d="M88 215q-16 0 -27 11t-11 27t10.5 26.5t27.5 10.5q16 0 26.5 -10t10.5 -27q0 -16 -10.5 -27t-26.5 -11z" />
<glyph unicode="&#xbf;" horiz-adv-x="465" d="M251 390q-16 0 -27 11t-11 27t10.5 26.5t27.5 10.5t27 -10.5t10 -26.5t-10.5 -27t-26.5 -11zM222 324l51 -4q0 -34 -2 -53q-1 -13 -3.5 -25t-5.5 -20.5t-10 -19.5l-10.5 -16.5t-13.5 -15.5t-13 -13.5t-14.5 -14t-13.5 -12.5q-65 -59 -65 -115q0 -51 31 -81.5t84 -30.5 q48 0 78 29.5t35 77.5l51 -12q-9 -65 -54 -105.5t-109 -40.5q-77 0 -122.5 46t-45.5 116q0 34 14.5 65t29 47.5t40.5 39.5q1 1 10 9.5t10.5 10.5t9.5 9.5t10 11t7.5 10.5t7.5 12t5.5 12t4.5 14t2 15q1 19 1 54z" />
<glyph unicode="&#xc0;" horiz-adv-x="497" d="M283 682l-20 -33l-167 104l29 45zM407 0l-38 123h-242l-38 -123h-50l177 557l65 4l176 -561h-50zM142 169h213l-107 341z" />
<glyph unicode="&#xc1;" horiz-adv-x="497" d="M399 753l-167 -103l-20 32l158 116zM407 0l-38 123h-242l-38 -123h-50l177 557l65 4l176 -561h-50zM142 169h213l-107 341z" />
<glyph unicode="&#xc2;" horiz-adv-x="497" d="M248 725l-80 -79l-31 29l112 107l112 -106l-30 -30zM407 0l-38 123h-242l-38 -123h-50l177 557l65 4l176 -561h-50zM142 169h213l-107 341z" />
<glyph unicode="&#xc3;" horiz-adv-x="497" d="M200 706q-8 0 -14.5 -6t-9 -12t-8.5 -19l-38 18q24 63 65 63q19 0 52 -20t47 -20q13 0 20.5 8t14.5 27l39 -17q-22 -63 -68 -63q-22 1 -54 21t-46 20zM407 0l-38 123h-242l-38 -123h-50l177 557l65 4l176 -561h-50zM142 169h213l-107 341z" />
<glyph unicode="&#xc4;" horiz-adv-x="497" d="M165 673q-17 0 -27 10.5t-10 26.5t10 26.5t27 10.5t27 -10.5t10 -26.5t-10 -26.5t-27 -10.5zM320 672q-16 0 -26.5 10t-10.5 27t10.5 27t26.5 10t26.5 -10t10.5 -27t-10.5 -27t-26.5 -10zM407 0l-38 123h-242l-38 -123h-50l177 557l65 4l176 -561h-50zM142 169h213 l-107 341z" />
<glyph unicode="&#xc5;" horiz-adv-x="497" d="M250 642q-30 0 -52 22t-22 51q0 31 21.5 52t52.5 21q29 0 50 -21t21 -52q0 -29 -21 -51t-50 -22zM249 753q-15 0 -25.5 -11t-10.5 -27q0 -15 10.5 -25.5t25.5 -10.5t25 10.5t10 25.5q0 16 -10 27t-25 11zM407 0l-38 123h-242l-38 -123h-50l177 557l65 4l176 -561h-50z M142 169h213l-107 341z" />
<glyph unicode="&#xc6;" horiz-adv-x="660" d="M610 513h-269v-224h201v-47h-201v-195h269v-47h-320v130h-186l-67 -130h-52l287 560h338v-47zM126 173h164v320z" />
<glyph unicode="&#xc7;" horiz-adv-x="544" d="M289 45q101 0 147 94l44 -21q-27 -58 -76 -90.5t-113 -32.5l-2 -37q46 7 76.5 -15.5t30.5 -60.5q0 -42 -27 -65t-67 -23q-35 0 -58 14.5t-30 30.5l24 21q21 -30 63 -30q24 0 40 14t16 39q0 21 -17 34.5t-49 14.5q-8 0 -20 -0.5t-18 -0.5l1 67q-81 15 -136 85.5t-55 187.5 v18q0 131 68 203.5t159 72.5q63 0 112.5 -32.5t77.5 -88.5l-43 -21q-50 93 -147 93q-71 0 -124 -58t-53 -169v-18q0 -111 53 -168.5t123 -57.5z" />
<glyph unicode="&#xc8;" horiz-adv-x="460" d="M285 690l-20 -33l-167 104l29 45zM410 513h-269v-224h201v-47h-201v-195h269v-47h-318v560h318v-47z" />
<glyph unicode="&#xc9;" horiz-adv-x="460" d="M401 761l-167 -103l-20 32l158 116zM410 513h-269v-224h201v-47h-201v-195h269v-47h-318v560h318v-47z" />
<glyph unicode="&#xca;" horiz-adv-x="460" d="M250 733l-80 -79l-31 29l112 107l112 -106l-30 -30zM410 513h-269v-224h201v-47h-201v-195h269v-47h-318v560h318v-47z" />
<glyph unicode="&#xcb;" horiz-adv-x="460" d="M167 681q-17 0 -27 10.5t-10 26.5t10 26.5t27 10.5t27 -10.5t10 -26.5t-10 -26.5t-27 -10.5zM322 680q-16 0 -26.5 10t-10.5 27t10.5 27t26.5 10t26.5 -10t10.5 -27t-10.5 -27t-26.5 -10zM410 513h-269v-224h201v-47h-201v-195h269v-47h-318v560h318v-47z" />
<glyph unicode="&#xcc;" horiz-adv-x="267" d="M148 649l-167 104l29 45l158 -116zM158 563v-563h-50v560z" />
<glyph unicode="&#xcd;" horiz-adv-x="267" d="M117 650l-20 32l158 116l29 -45zM158 563v-563h-50v560z" />
<glyph unicode="&#xce;" horiz-adv-x="267" d="M134 782l112 -106l-30 -30l-83 79l-80 -79l-31 29zM108 0v560l50 3v-563h-50z" />
<glyph unicode="&#xcf;" horiz-adv-x="267" d="M50 673q-16 0 -26.5 10.5t-10.5 26.5t10.5 26.5t26.5 10.5t26.5 -10.5t10.5 -26.5t-10.5 -26.5t-26.5 -10.5zM205 672q-17 0 -27 10t-10 27t10 27t27 10t27 -10t10 -27t-10 -27t-27 -10zM158 563v-563h-50v560z" />
<glyph unicode="&#xd0;" horiz-adv-x="546" d="M145 676v42h202v-42h-202zM92 0v559q54 4 151 6q44 0 84.5 -15t76 -47t57 -90t21.5 -135q0 -71 -19 -124t-45.5 -81.5t-63 -46t-64.5 -22t-57 -4.5h-141zM143 50h90q90 0 144 55.5t54 171.5t-55 176.5t-135 60.5q-65 0 -98 -2v-462z" />
<glyph unicode="&#xd1;" d="M234 700q-8 0 -14.5 -6t-9 -12t-8.5 -19l-38 18q24 63 65 63q19 0 52 -20t47 -20q13 0 20.5 8t14.5 27l39 -17q-22 -63 -68 -63q-22 1 -54 21t-46 20zM442 558h50v-558h-47l-303 475v-475h-50v557l51 3l299 -472v470z" />
<glyph unicode="&#xd2;" d="M306 649l-167 104l29 45l158 -116zM292 -5q-94 0 -161 72t-67 204v18q0 132 67 204t161 72q93 0 160.5 -72.5t67.5 -203.5v-18q0 -131 -67.5 -203.5t-160.5 -72.5zM291 43q73 0 126 57.5t53 170.5v18q0 113 -52.5 171t-125.5 58t-125.5 -58t-52.5 -171v-18 q0 -112 52.5 -170t124.5 -58z" />
<glyph unicode="&#xd3;" d="M275 650l-20 32l158 116l29 -45zM292 -5q-94 0 -161 72t-67 204v18q0 132 67 204t161 72q93 0 160.5 -72.5t67.5 -203.5v-18q0 -131 -67.5 -203.5t-160.5 -72.5zM291 43q73 0 126 57.5t53 170.5v18q0 113 -52.5 171t-125.5 58t-125.5 -58t-52.5 -171v-18 q0 -112 52.5 -170t124.5 -58z" />
<glyph unicode="&#xd4;" d="M291 725l-80 -79l-31 29l112 107l112 -106l-30 -30zM292 565q93 0 160.5 -72.5t67.5 -203.5v-18q0 -131 -67.5 -203.5t-160.5 -72.5q-94 0 -161 72t-67 204v18q0 132 67 204t161 72zM470 271v18q0 113 -52.5 171t-125.5 58t-125.5 -58t-52.5 -171v-18q0 -112 52.5 -170 t124.5 -58q73 0 126 57.5t53 170.5z" />
<glyph unicode="&#xd5;" d="M211 669l-38 18q24 63 65 63q19 0 52 -20t47 -20q13 0 20.5 8t14.5 27l39 -17q-22 -63 -68 -63q-22 1 -54 21t-46 20q-8 0 -14.5 -6t-9 -12t-8.5 -19zM292 -5q-94 0 -161 72t-67 204v18q0 132 67 204t161 72q93 0 160.5 -72.5t67.5 -203.5v-18q0 -131 -67.5 -203.5 t-160.5 -72.5zM291 43q73 0 126 57.5t53 170.5v18q0 113 -52.5 171t-125.5 58t-125.5 -58t-52.5 -171v-18q0 -112 52.5 -170t124.5 -58z" />
<glyph unicode="&#xd6;" d="M208 673q-16 0 -26.5 10.5t-10.5 26.5t10.5 26.5t26.5 10.5t26.5 -10.5t10.5 -26.5t-10.5 -26.5t-26.5 -10.5zM363 672q-17 0 -27 10t-10 27t10 27t27 10t27 -10t10 -27t-10 -27t-27 -10zM292 -5q-94 0 -161 72t-67 204v18q0 132 67 204t161 72q93 0 160.5 -72.5 t67.5 -203.5v-18q0 -131 -67.5 -203.5t-160.5 -72.5zM291 43q73 0 126 57.5t53 170.5v18q0 113 -52.5 171t-125.5 58t-125.5 -58t-52.5 -171v-18q0 -112 52.5 -170t124.5 -58z" />
<glyph unicode="&#xd7;" horiz-adv-x="501" d="M425 400l-143 -145l143 -146l-33 -32l-142 145l-142 -145l-33 32l143 146l-143 145l33 32l142 -145l142 145z" />
<glyph unicode="&#xd8;" d="M537 515l-58 -59q41 -68 41 -167v-18q0 -131 -67.5 -203.5t-160.5 -72.5q-110 0 -174 89l-59 -60l-30 29l66 68q-31 65 -31 150v18q0 132 67 204t161 72q97 0 163 -75l52 54zM114 271q0 -63 19 -112l288 297q-49 62 -129 62q-73 0 -125.5 -58t-52.5 -171v-18zM470 289 q0 75 -26 130l-292 -299q51 -77 139 -77q73 0 126 57.5t53 170.5v18z" />
<glyph unicode="&#xd9;" horiz-adv-x="568" d="M298 633l-167 104l29 45l158 -116zM284 -5q-87 0 -143 59.5t-55 157.5l3 346l48 3l-2 -347q0 -76 42 -122t107 -46q67 0 107.5 45.5t40.5 122.5v346h49l1 -348q0 -98 -55 -157.5t-143 -59.5z" />
<glyph unicode="&#xda;" horiz-adv-x="568" d="M267 634l-20 32l158 116l29 -45zM284 -5q-87 0 -143 59.5t-55 157.5l3 346l48 3l-2 -347q0 -76 42 -122t107 -46q67 0 107.5 45.5t40.5 122.5v346h49l1 -348q0 -98 -55 -157.5t-143 -59.5z" />
<glyph unicode="&#xdb;" horiz-adv-x="568" d="M283 709l-80 -79l-31 29l112 107l112 -106l-30 -30zM481 560l1 -348q0 -98 -55 -157.5t-143 -59.5q-87 0 -143 59.5t-55 157.5l3 346l48 3l-2 -347q0 -76 42 -122t107 -46q67 0 107.5 45.5t40.5 122.5v346h49z" />
<glyph unicode="&#xdc;" horiz-adv-x="568" d="M200 657q-16 0 -26.5 10.5t-10.5 26.5t10.5 26.5t26.5 10.5t26.5 -10.5t10.5 -26.5t-10.5 -26.5t-26.5 -10.5zM355 656q-17 0 -27 10t-10 27t10 27t27 10t27 -10t10 -27t-10 -27t-27 -10zM284 -5q-87 0 -143 59.5t-55 157.5l3 346l48 3l-2 -347q0 -76 42 -122t107 -46 q67 0 107.5 45.5t40.5 122.5v346h49l1 -348q0 -98 -55 -157.5t-143 -59.5z" />
<glyph unicode="&#xdd;" horiz-adv-x="422" d="M361 735l-167 -103l-20 32l158 116zM405 559l-169 -321v-238h-50v238l-170 321l51 3l143 -273h2l142 273z" />
<glyph unicode="&#xde;" horiz-adv-x="486" d="M262 507q79 9 128 -57t49 -166q0 -108 -52.5 -168.5t-128.5 -52.5q-50 5 -100 52v-115h-50v560l50 3v-116q53 53 104 60zM254 108q60 -5 96.5 42t36.5 134q0 81 -36.5 133t-96.5 44q-41 -5 -96 -62v-237q57 -52 96 -54z" />
<glyph unicode="&#xdf;" horiz-adv-x="500" d="M92 0v422q1 82 40 122t106 40q66 0 107.5 -32t41.5 -83q0 -30 -14.5 -57.5t-29.5 -46.5t-15 -29q0 -12 21 -28.5t45.5 -33t45.5 -51t21 -78.5q0 -72 -44.5 -111t-105.5 -39q-59 0 -110 38l15 42q41 -31 87 -31q42 1 74.5 27t32.5 81q0 37 -21.5 65t-47 42t-47 33.5 t-21.5 41.5q0 16 32 59.5t32 74.5q0 34 -27 54t-72 20q-97 0 -97 -113l-1 -429h-48z" />
<glyph unicode="&#xe0;" horiz-adv-x="486" d="M280 560l-20 -33l-167 104l29 45zM393 137q0 -45 13.5 -66.5t54.5 -21.5v-47q-92 -7 -113 70q-60 -64 -113 -72q-82 -13 -134 49.5t-52 172.5q0 106 56 174.5t144 47.5q43 -10 95 -70v35l1 35l49 -3zM234 45q49 6 109 66v14l1 203q-54 62 -97 71q-64 13 -105 -39.5 t-41 -137.5q0 -87 36.5 -134.5t96.5 -42.5z" />
<glyph unicode="&#xe1;" horiz-adv-x="486" d="M396 631l-167 -103l-20 32l158 116zM393 137q0 -45 13.5 -66.5t54.5 -21.5v-47q-92 -7 -113 70q-60 -64 -113 -72q-82 -13 -134 49.5t-52 172.5q0 106 56 174.5t144 47.5q43 -10 95 -70v35l1 35l49 -3zM234 45q49 6 109 66v14l1 203q-54 62 -97 71q-64 13 -105 -39.5 t-41 -137.5q0 -87 36.5 -134.5t96.5 -42.5z" />
<glyph unicode="&#xe2;" horiz-adv-x="486" d="M245 603l-80 -79l-31 29l112 107l112 -106l-30 -30zM393 137q0 -45 13.5 -66.5t54.5 -21.5v-47q-92 -7 -113 70q-60 -64 -113 -72q-82 -13 -134 49.5t-52 172.5q0 106 56 174.5t144 47.5q43 -10 95 -70v35l1 35l49 -3zM234 45q49 6 109 66v14l1 203q-54 62 -97 71 q-64 13 -105 -39.5t-41 -137.5q0 -87 36.5 -134.5t96.5 -42.5z" />
<glyph unicode="&#xe3;" horiz-adv-x="486" d="M197 584q-8 0 -14.5 -6t-9 -12t-8.5 -19l-38 18q24 63 65 63q19 0 52 -20t47 -20q13 0 20.5 8t14.5 27l39 -17q-22 -63 -68 -63q-22 1 -54 21t-46 20zM393 137q0 -45 13.5 -66.5t54.5 -21.5v-47q-92 -7 -113 70q-60 -64 -113 -72q-82 -13 -134 49.5t-52 172.5 q0 106 56 174.5t144 47.5q43 -10 95 -70v35l1 35l49 -3zM234 45q49 6 109 66v14l1 203q-54 62 -97 71q-64 13 -105 -39.5t-41 -137.5q0 -87 36.5 -134.5t96.5 -42.5z" />
<glyph unicode="&#xe4;" horiz-adv-x="486" d="M162 551q-16 0 -26.5 10.5t-10.5 26.5t10.5 26.5t26.5 10.5t26.5 -10.5t10.5 -26.5t-10.5 -26.5t-26.5 -10.5zM317 550q-17 0 -27 10t-10 27t10 27t27 10t27 -10t10 -27t-10 -27t-27 -10zM393 137q0 -45 13.5 -66.5t54.5 -21.5v-47q-92 -7 -113 70q-60 -64 -113 -72 q-82 -13 -134 49.5t-52 172.5q0 106 56 174.5t144 47.5q43 -10 95 -70v35l1 35l49 -3zM234 45q49 6 109 66v14l1 203q-54 62 -97 71q-64 13 -105 -39.5t-41 -137.5q0 -87 36.5 -134.5t96.5 -42.5z" />
<glyph unicode="&#xe5;" horiz-adv-x="486" d="M247 520q-31 0 -52.5 22t-21.5 51q0 31 21.5 52t52.5 21q29 0 50 -21t21 -52q0 -29 -21 -51t-50 -22zM246 631q-15 0 -25.5 -11t-10.5 -27q0 -15 10.5 -25.5t25.5 -10.5t25 10.5t10 25.5q0 16 -10 27t-25 11zM393 137q0 -45 13.5 -66.5t54.5 -21.5v-47q-92 -7 -113 70 q-60 -64 -113 -72q-82 -13 -134 49.5t-52 172.5q0 106 56 174.5t144 47.5q43 -10 95 -70v35l1 35l49 -3zM234 45q49 6 109 66v14l1 203q-54 62 -97 71q-64 13 -105 -39.5t-41 -137.5q0 -87 36.5 -134.5t96.5 -42.5z" />
<glyph unicode="&#xe6;" horiz-adv-x="814" d="M760 208l-328 1v-8q2 -71 40.5 -116t100.5 -45q87 0 130 84l45 -14q-24 -53 -70 -84t-104 -31q-63 0 -109 36t-67 98v-129h-48v69q-61 -61 -111 -69q-82 -13 -134 49.5t-52 172.5q0 106 56 174.5t144 47.5q43 -10 97 -73v71l48 -3v-130q21 62 68 99t108 37 q78 0 132.5 -57.5t54.5 -146.5q0 -23 -1 -33zM238 45q49 6 112 69v212q-59 65 -99 73q-64 13 -105 -39.5t-41 -137.5q0 -87 36.5 -134.5t96.5 -42.5zM574 401q-58 0 -99 -44.5t-42 -103.5h279q0 65 -40.5 106.5t-97.5 41.5z" />
<glyph unicode="&#xe7;" horiz-adv-x="452" d="M240 43q45 0 77.5 26t44.5 57l40 -24q-17 -42 -58.5 -73.5t-96.5 -33.5l-2 -38q46 7 76.5 -15.5t30.5 -60.5q0 -42 -27 -65t-67 -23q-35 0 -58 14.5t-30 30.5l24 21q21 -30 63 -30q24 0 40 14t16 39q0 21 -17 34.5t-49 14.5q-8 0 -20 -0.5t-18 -0.5l1 68 q-70 12 -115.5 71t-45.5 143v16q0 93 55.5 155t136.5 62q57 0 100 -32.5t61 -75.5l-41 -23q-11 31 -43.5 57.5t-76.5 26.5q-60 0 -101.5 -48t-41.5 -122v-16q0 -74 41.5 -121.5t100.5 -47.5z" />
<glyph unicode="&#xe8;" horiz-adv-x="484" d="M256 525l-167 104l29 45l158 -116zM244 -5q-85 0 -137.5 63.5t-52.5 161.5q0 97 54 161t136 64q78 0 132.5 -57.5t54.5 -146.5q0 -23 -1 -33l-328 1v-8q2 -71 40.5 -116t100.5 -45q87 0 130 84l45 -14q-24 -53 -70 -84t-104 -31zM103 253h279q0 65 -40.5 106.5 t-97.5 41.5q-58 0 -99 -44.5t-42 -103.5z" />
<glyph unicode="&#xe9;" horiz-adv-x="484" d="M225 526l-20 32l158 116l29 -45zM244 -5q-85 0 -137.5 63.5t-52.5 161.5q0 97 54 161t136 64q78 0 132.5 -57.5t54.5 -146.5q0 -23 -1 -33l-328 1v-8q2 -71 40.5 -116t100.5 -45q87 0 130 84l45 -14q-24 -53 -70 -84t-104 -31zM103 253h279q0 65 -40.5 106.5t-97.5 41.5 q-58 0 -99 -44.5t-42 -103.5z" />
<glyph unicode="&#xea;" horiz-adv-x="484" d="M241 601l-80 -79l-31 29l112 107l112 -106l-30 -30zM430 208l-328 1v-8q2 -71 40.5 -116t100.5 -45q87 0 130 84l45 -14q-24 -53 -70 -84t-104 -31q-85 0 -137.5 63.5t-52.5 161.5q0 97 54 161t136 64q78 0 132.5 -57.5t54.5 -146.5q0 -23 -1 -33zM244 401 q-58 0 -99 -44.5t-42 -103.5h279q0 65 -40.5 106.5t-97.5 41.5z" />
<glyph unicode="&#xeb;" horiz-adv-x="484" d="M158 549q-16 0 -26.5 10.5t-10.5 26.5t10.5 26.5t26.5 10.5t26.5 -10.5t10.5 -26.5t-10.5 -26.5t-26.5 -10.5zM313 548q-17 0 -27 10t-10 27t10 27t27 10t27 -10t10 -27t-10 -27t-27 -10zM244 -5q-85 0 -137.5 63.5t-52.5 161.5q0 97 54 161t136 64q78 0 132.5 -57.5 t54.5 -146.5q0 -23 -1 -33l-328 1v-8q2 -71 40.5 -116t100.5 -45q87 0 130 84l45 -14q-24 -53 -70 -84t-104 -31zM103 253h279q0 65 -40.5 106.5t-97.5 41.5q-58 0 -99 -44.5t-42 -103.5z" />
<glyph unicode="&#xec;" horiz-adv-x="229" d="M129 497l-167 104l29 45l158 -116zM89 0l1 436l50 3l-1 -439h-50z" />
<glyph unicode="&#xed;" horiz-adv-x="229" d="M98 498l-20 32l158 116l29 -45zM89 0l1 436l50 3l-1 -439h-50z" />
<glyph unicode="&#xee;" horiz-adv-x="229" d="M115 630l112 -106l-30 -30l-83 79l-80 -79l-31 29zM89 0l1 436l50 3l-1 -439h-50z" />
<glyph unicode="&#xef;" horiz-adv-x="229" d="M31 521q-17 0 -27 10.5t-10 26.5t10 26.5t27 10.5t27 -10.5t10 -26.5t-10 -26.5t-27 -10.5zM186 520q-16 0 -26.5 10t-10.5 27t10.5 27t26.5 10t26.5 -10t10.5 -27t-10.5 -27t-26.5 -10zM89 0l1 436l50 3l-1 -439h-50z" />
<glyph unicode="&#xf0;" horiz-adv-x="512" d="M458 329q0 -89 -27 -171.5t-89 -126.5q-47 -36 -106 -36h-7h-3q-79 5 -132 68t-53 157q0 96 56 159.5t137 63.5q60 0 108.5 -39t68.5 -103q1 9 1 26q0 173 -105 285l-67 -62l-23 28l64 59q-43 37 -97 60l22 36q61 -25 108 -66l53 48l23 -27l-50 -46q118 -123 118 -313z M91 220q0 -80 42 -130.5t104 -50.5q63 0 105.5 50.5t42.5 130.5q0 82 -42 133t-105 51t-105 -51t-42 -133z" />
<glyph unicode="&#xf1;" horiz-adv-x="516" d="M213 582q-8 0 -14.5 -6t-9 -12t-8.5 -19l-38 18q24 63 65 63q19 0 52 -20t47 -20q13 0 20.5 8t14.5 27l39 -17q-22 -63 -68 -63q-22 1 -54 21t-46 20zM263 445q73 10 120.5 -35t47.5 -120v-290h-50v278q0 62 -36.5 95.5t-93.5 24.5q-31 -5 -61.5 -29t-50.5 -56v-313h-50 v440l49 3l1 -77q51 69 124 79z" />
<glyph unicode="&#xf2;" horiz-adv-x="492" d="M260 525l-167 104l29 45l158 -116zM246 -5q-84 0 -140.5 62t-56.5 155v16q0 93 56.5 155t140.5 62q83 0 140 -62t57 -155v-16q0 -93 -57 -155t-140 -62zM245 41q63 0 105.5 48t42.5 123v16q0 76 -42 124t-105 48t-105 -48t-42 -124v-16q0 -75 42 -123t104 -48z" />
<glyph unicode="&#xf3;" horiz-adv-x="492" d="M229 526l-20 32l158 116l29 -45zM246 -5q-84 0 -140.5 62t-56.5 155v16q0 93 56.5 155t140.5 62q83 0 140 -62t57 -155v-16q0 -93 -57 -155t-140 -62zM245 41q63 0 105.5 48t42.5 123v16q0 76 -42 124t-105 48t-105 -48t-42 -124v-16q0 -75 42 -123t104 -48z" />
<glyph unicode="&#xf4;" horiz-adv-x="492" d="M245 601l-80 -79l-31 29l112 107l112 -106l-30 -30zM246 445q83 0 140 -62t57 -155v-16q0 -93 -57 -155t-140 -62q-84 0 -140.5 62t-56.5 155v16q0 93 56.5 155t140.5 62zM393 212v16q0 76 -42 124t-105 48t-105 -48t-42 -124v-16q0 -75 42 -123t104 -48q63 0 105.5 48 t42.5 123z" />
<glyph unicode="&#xf5;" horiz-adv-x="492" d="M165 545l-38 18q24 63 65 63q19 0 52 -20t47 -20q13 0 20.5 8t14.5 27l39 -17q-22 -63 -68 -63q-22 1 -54 21t-46 20q-8 0 -14.5 -6t-9 -12t-8.5 -19zM246 -5q-84 0 -140.5 62t-56.5 155v16q0 93 56.5 155t140.5 62q83 0 140 -62t57 -155v-16q0 -93 -57 -155t-140 -62z M245 41q63 0 105.5 48t42.5 123v16q0 76 -42 124t-105 48t-105 -48t-42 -124v-16q0 -75 42 -123t104 -48z" />
<glyph unicode="&#xf6;" horiz-adv-x="492" d="M162 549q-16 0 -26.5 10.5t-10.5 26.5t10.5 26.5t26.5 10.5t26.5 -10.5t10.5 -26.5t-10.5 -26.5t-26.5 -10.5zM317 548q-17 0 -27 10t-10 27t10 27t27 10t27 -10t10 -27t-10 -27t-27 -10zM246 -5q-84 0 -140.5 62t-56.5 155v16q0 93 56.5 155t140.5 62q83 0 140 -62 t57 -155v-16q0 -93 -57 -155t-140 -62zM245 41q63 0 105.5 48t42.5 123v16q0 76 -42 124t-105 48t-105 -48t-42 -124v-16q0 -75 42 -123t104 -48z" />
<glyph unicode="&#xf7;" horiz-adv-x="512" d="M249 358q-16 0 -27 11t-11 27t10.5 26.5t27.5 10.5t27 -10.5t10 -26.5t-10.5 -27t-26.5 -11zM75 236v43h361v-43h-361zM249 71q-16 0 -27 11t-11 27t10.5 26.5t27.5 10.5t27 -10t10 -27q0 -16 -10.5 -27t-26.5 -11z" />
<glyph unicode="&#xf8;" horiz-adv-x="492" d="M450 405l-45 -46q38 -57 38 -131v-16q0 -93 -57 -155t-140 -62t-138 60l-42 -43l-25 23l45 47q-37 56 -37 130v16q0 93 56.5 155t140.5 62q81 0 138 -59l42 43zM99 212q0 -53 22 -95l230 235q-42 48 -105 48t-105 -48t-42 -124v-16zM393 228q0 55 -23 96l-229 -235 q42 -48 104 -48q63 0 105.5 48t42.5 123v16z" />
<glyph unicode="&#xf9;" horiz-adv-x="512" d="M290 551l-20 -33l-167 104l29 45zM372 440h50v-440h-49l-2 68q-55 -58 -125 -68q-72 -9 -119 35.5t-47 119.5v283l50 3v-273q0 -65 36 -97.5t92 -22.5q66 12 113 80z" />
<glyph unicode="&#xfa;" horiz-adv-x="512" d="M406 622l-167 -103l-20 32l158 116zM372 440h50v-440h-49l-2 68q-55 -58 -125 -68q-72 -9 -119 35.5t-47 119.5v283l50 3v-273q0 -65 36 -97.5t92 -22.5q66 12 113 80z" />
<glyph unicode="&#xfb;" horiz-adv-x="512" d="M255 594l-80 -79l-31 29l112 107l112 -106l-30 -30zM372 440h50v-440h-49l-2 68q-55 -58 -125 -68q-72 -9 -119 35.5t-47 119.5v283l50 3v-273q0 -65 36 -97.5t92 -22.5q66 12 113 80z" />
<glyph unicode="&#xfc;" horiz-adv-x="512" d="M172 542q-16 0 -26.5 10t-10.5 27t10.5 27t26.5 10t26.5 -10t10.5 -27t-10.5 -27t-26.5 -10zM327 541q-17 0 -27 10.5t-10 26.5t10 26.5t27 10.5t27 -10.5t10 -26.5t-10 -26.5t-27 -10.5zM372 440h50v-440h-49l-2 68q-55 -58 -125 -68q-72 -9 -119 35.5t-47 119.5v283 l50 3v-273q0 -65 36 -97.5t92 -22.5q66 12 113 80z" />
<glyph unicode="&#xfd;" horiz-adv-x="510" d="M404 607l-167 -103l-20 32l158 116zM371 440h50v-466q0 -82 -50.5 -131t-133.5 -49q-44 0 -83.5 18.5t-57.5 40.5l26 36q15 -18 47.5 -33t67.5 -15q58 0 96 36t38 99v92q-57 -58 -125 -68q-72 -9 -119 35.5t-47 119.5v283l50 3v-273q0 -65 36 -97.5t92 -22.5 q66 12 113 80v312z" />
<glyph unicode="&#xfe;" horiz-adv-x="451" d="M231 445q79 9 128 -57t49 -166q0 -108 -52.5 -168.5t-128.5 -52.5q-52 5 -104 56v-262l-50 3v792l50 3v-212q55 57 108 64zM223 46q60 -5 96.5 42t36.5 134q0 81 -36.5 133t-96.5 44q-43 -5 -100 -66v-229q58 -54 100 -58z" />
<glyph unicode="&#xff;" horiz-adv-x="510" d="M170 527q-16 0 -26.5 10.5t-10.5 26.5t10.5 26.5t26.5 10.5t26.5 -10.5t10.5 -26.5t-10.5 -26.5t-26.5 -10.5zM325 526q-17 0 -27 10t-10 27t10 27t27 10t27 -10t10 -27t-10 -27t-27 -10zM371 440h50v-466q0 -82 -50.5 -131t-133.5 -49q-44 0 -83.5 18.5t-57.5 40.5 l26 36q15 -18 47.5 -33t67.5 -15q58 0 96 36t38 99v92q-57 -58 -125 -68q-72 -9 -119 35.5t-47 119.5v283l50 3v-273q0 -65 36 -97.5t92 -22.5q66 12 113 80v312z" />
<glyph unicode="&#x13f;" horiz-adv-x="377" d="M142 47h207v-47h-257v558l50 3v-514zM310 311q-16 0 -26.5 10.5t-10.5 26.5t10.5 26.5t26.5 10.5t26.5 -10.5t10.5 -26.5t-10.5 -26.5t-26.5 -10.5z" />
<glyph unicode="&#x140;" horiz-adv-x="367" d="M198 0q-60 0 -87.5 31t-27.5 98l1 460l50 3l-1 -453q0 -45 13.5 -67t54.5 -23h28v-49h-31zM279 295q-17 0 -27 10.5t-10 26.5t10 26.5t27 10.5t27 -10.5t10 -26.5t-10 -26.5t-27 -10.5z" />
<glyph unicode="&#x152;" horiz-adv-x="854" d="M804 513h-269v-224h201v-47h-201v-195h269v-47h-318v123q-30 -62 -82 -95t-112 -33q-94 0 -161 72t-67 204v18q0 132 67 204t161 72q60 0 112 -33t82 -95v123h318v-47zM470 271v18q0 113 -52.5 171t-125.5 58t-125.5 -58t-52.5 -171v-18q0 -112 52.5 -170t124.5 -58 q73 0 126 57.5t53 170.5z" />
<glyph unicode="&#x153;" horiz-adv-x="851" d="M797 208l-328 1v-8q2 -71 40.5 -116t100.5 -45q87 0 130 84l45 -14q-24 -53 -70 -84t-104 -31q-63 0 -109.5 37t-67.5 100q-21 -62 -70 -99.5t-110 -37.5q-84 0 -140.5 62t-56.5 155v16q0 93 56.5 155t140.5 62q62 0 111 -37.5t70 -100.5q21 63 67.5 100.5t108.5 37.5 q78 0 132.5 -57.5t54.5 -146.5q0 -23 -1 -33zM611 401q-58 0 -99 -44.5t-42 -103.5h279q0 65 -40.5 106.5t-97.5 41.5zM401 212v16q0 75 -42.5 122.5t-104.5 47.5t-104.5 -47.5t-42.5 -122.5v-16q0 -74 42 -121.5t104 -47.5q63 0 105.5 47.5t42.5 121.5z" />
<glyph unicode="&#x178;" horiz-adv-x="422" d="M127 655q-17 0 -27 10.5t-10 26.5t10 26.5t27 10.5t27 -10.5t10 -26.5t-10 -26.5t-27 -10.5zM282 654q-16 0 -26.5 10t-10.5 27t10.5 27t26.5 10t26.5 -10t10.5 -27t-10.5 -27t-26.5 -10zM405 559l-169 -321v-238h-50v238l-170 321l51 3l143 -273h2l142 273z" />
<glyph unicode="&#x2000;" horiz-adv-x="403" />
<glyph unicode="&#x2001;" horiz-adv-x="806" />
<glyph unicode="&#x2002;" horiz-adv-x="403" />
<glyph unicode="&#x2003;" horiz-adv-x="806" />
<glyph unicode="&#x2004;" horiz-adv-x="268" />
<glyph unicode="&#x2005;" horiz-adv-x="201" />
<glyph unicode="&#x2006;" horiz-adv-x="134" />
<glyph unicode="&#x2007;" horiz-adv-x="134" />
<glyph unicode="&#x2008;" horiz-adv-x="100" />
<glyph unicode="&#x2009;" horiz-adv-x="161" />
<glyph unicode="&#x200a;" horiz-adv-x="44" />
<glyph unicode="&#x2010;" horiz-adv-x="379" d="M85 230l10 47h199l-10 -47h-199z" />
<glyph unicode="&#x2011;" horiz-adv-x="379" d="M85 230l10 47h199l-10 -47h-199z" />
<glyph unicode="&#x2012;" horiz-adv-x="379" d="M85 230l10 47h199l-10 -47h-199z" />
<glyph unicode="&#x2013;" horiz-adv-x="468" d="M85 222l7 47h291l-7 -47h-291z" />
<glyph unicode="&#x2014;" horiz-adv-x="543" d="M85 222l7 47h365l-6 -47h-366z" />
<glyph unicode="&#x2018;" horiz-adv-x="146" d="M80 402l-50 6l39 227l41 -4z" />
<glyph unicode="&#x2019;" horiz-adv-x="142" d="M76 404l-40 3l26 229l50 -5z" />
<glyph unicode="&#x201c;" horiz-adv-x="309" d="M76 402l-50 6l39 227l41 -4zM240 402l-50 6l39 227l41 -4z" />
<glyph unicode="&#x201d;" horiz-adv-x="305" d="M68 402l-40 3l26 229l50 -5zM232 402l-40 3l26 229l50 -5z" />
<glyph unicode="&#x2022;" horiz-adv-x="170" d="M86 187q-26 0 -42.5 16t-16.5 41q0 24 17 40t42 16q23 0 39.5 -16t16.5 -40t-16 -40.5t-40 -16.5z" />
<glyph unicode="&#x2026;" horiz-adv-x="547" d="M101 -2q-16 0 -27 11t-11 27t10.5 26.5t27.5 10.5t27 -10.5t10 -26.5t-10.5 -27t-26.5 -11zM274 -2q-16 0 -27 11t-11 27t10.5 26.5t27.5 10.5q16 0 26.5 -10.5t10.5 -26.5t-10.5 -27t-26.5 -11zM451 -2q-16 0 -27 11t-11 27t10.5 26.5t27.5 10.5t27 -10.5t10 -26.5 t-10.5 -27t-26.5 -11z" />
<glyph unicode="&#x202f;" horiz-adv-x="161" />
<glyph unicode="&#x205f;" horiz-adv-x="201" />
<glyph unicode="&#x20ac;" horiz-adv-x="574" d="M330 41q101 0 150 96l41 -19q-27 -58 -76.5 -90.5t-113.5 -32.5q-77 0 -139 53t-81 151h-60v34h56q-2 24 -2 38v18q0 18 1 26h-55v34h58q16 103 79.5 159.5t142.5 56.5q63 0 112.5 -32.5t77.5 -88.5l-41 -21q-49 97 -150 97q-59 0 -108 -43.5t-62 -127.5h172v-34h-176 q-1 -8 -1 -26v-18q0 -14 2 -38h175v-34h-170q16 -78 63.5 -118t104.5 -40z" />
<glyph unicode="&#x25fc;" horiz-adv-x="440" d="M0 440h440v-440h-440v440z" />
<glyph horiz-adv-x="229" d="M114 498q-17 0 -28 11t-11 28t11 28t28 11q18 0 29 -11t11 -28t-11 -28t-29 -11zM89 0l1 436l50 3l-1 -439h-50z" />
</font>
</defs>
</svg>
